<svg xmlns="http://www.w3.org/2000/svg" xmlns:xlink="http://www.w3.org/1999/xlink" viewBox="0 0 1080 1080" width="1080" height="1080" preserveAspectRatio="xMidYMid meet" style="width: 100%; height: 100%; transform: translate3d(0px, 0px, 0px); content-visibility: visible;"><defs><clipPath id="__lottie_element_3786"><rect width="1080" height="1080" x="0" y="0"></rect></clipPath></defs><g clip-path="url(#__lottie_element_3786)"><g transform="matrix(1,0,0,1,315,540)" opacity="1" style="display: block;"><g opacity="1" transform="matrix(1,0,0,1,0,0)"><path fill="rgb(0,221,179)" fill-opacity="1" d=" M50,0 C50,0 50,0 50,0 C50,27.594999313354492 27.594999313354492,50 0,50 C0,50 0,50 0,50 C-27.594999313354492,50 -50,27.594999313354492 -50,0 C-50,0 -50,0 -50,0 C-50,-27.594999313354492 -27.594999313354492,-50 0,-50 C0,-50 0,-50 0,-50 C27.594999313354492,-50 50,-27.594999313354492 50,0z"></path></g></g><g transform="matrix(1,0,0,1,465,540)" opacity="1" style="display: block;"><g opacity="1" transform="matrix(1,0,0,1,0,0)"><path fill="rgb(0,221,179)" fill-opacity="1" d=" M50,0 C50,0 50,0 50,0 C50,27.594999313354492 27.594999313354492,50 0,50 C0,50 0,50 0,50 C-27.594999313354492,50 -50,27.594999313354492 -50,0 C-50,0 -50,0 -50,0 C-50,-27.594999313354492 -27.594999313354492,-50 0,-50 C0,-50 0,-50 0,-50 C27.594999313354492,-50 50,-27.594999313354492 50,0z"></path></g></g><g transform="matrix(1,0,0,1,615,540)" opacity="1" style="display: block;"><g opacity="1" transform="matrix(1,0,0,1,0,0)"><path fill="rgb(0,221,179)" fill-opacity="1" d=" M50,0 C50,0 50,0 50,0 C50,27.594999313354492 27.594999313354492,50 0,50 C0,50 0,50 0,50 C-27.594999313354492,50 -50,27.594999313354492 -50,0 C-50,0 -50,0 -50,0 C-50,-27.594999313354492 -27.594999313354492,-50 0,-50 C0,-50 0,-50 0,-50 C27.594999313354492,-50 50,-27.594999313354492 50,0z"></path></g></g><g transform="matrix(1,0,0,1,765,540)" opacity="1" style="display: block;"><g opacity="1" transform="matrix(1,0,0,1,0,0)"><path fill="rgb(0,221,179)" fill-opacity="1" d=" M50,0 C50,0 50,0 50,0 C50,27.594999313354492 27.594999313354492,50 0,50 C0,50 0,50 0,50 C-27.594999313354492,50 -50,27.594999313354492 -50,0 C-50,0 -50,0 -50,0 C-50,-27.594999313354492 -27.594999313354492,-50 0,-50 C0,-50 0,-50 0,-50 C27.594999313354492,-50 50,-27.594999313354492 50,0z"></path></g></g></g></svg>